<?xml version="1.0" encoding="utf-8"?>
<!-- Generator: Adobe Illustrator 17.1.0, SVG Export Plug-In . SVG Version: 6.00 Build 0)  -->
<!DOCTYPE svg PUBLIC "-//W3C//DTD SVG 1.1//EN" "http://www.w3.org/Graphics/SVG/1.1/DTD/svg11.dtd">
<svg version="1.1" id="圖層_1" xmlns="http://www.w3.org/2000/svg" xmlns:xlink="http://www.w3.org/1999/xlink" x="0px" y="0px"
	 viewBox="0 0 164 46" enable-background="new 0 0 164 46" xml:space="preserve">
<path fill="#4C4C4C" d="M153.5,17.9c-7.7,3.5-16,2.3-21.6-3.2C124,6.9,106.6-4.3,82,2.7c-24.6-7-42,4.2-49.9,12
	c-5.6,5.5-13.9,6.7-21.6,3.2C2.8,14.4,0.4,5.8,0.4,5.8C7.1,36,34.6,43.2,34.6,43.2c27,7.9,45.1-7.4,47.4-9.5
	c2.3,2.1,20.3,17.4,47.4,9.5c0,0,27.5-7.3,34.2-37.4C163.6,5.8,161.2,14.4,153.5,17.9z"/>
</svg>
